<?xml version="1.0" standalone="no"?>
<!DOCTYPE svg PUBLIC "-//W3C//DTD SVG 20010904//EN"
 "http://www.w3.org/TR/2001/REC-SVG-20010904/DTD/svg10.dtd">
<svg version="1.0" xmlns="http://www.w3.org/2000/svg"
 width="600.000000pt" height="600.000000pt" viewBox="0 0 600.000000 600.000000"
 preserveAspectRatio="xMidYMid meet">
<metadata>
Created by potrace 1.11, written by Peter Selinger 2001-2013
</metadata>
<g transform="translate(0.000000,600.000000) scale(0.100000,-0.100000)"
fill="#000000" stroke="none">
<path d="M2771 5990 c-580 -49 -1109 -250 -1581 -603 -162 -121 -438 -392
-551 -542 -318 -420 -509 -854 -594 -1351 -126 -736 35 -1514 442 -2134 129
-196 221 -309 398 -486 480 -481 1069 -770 1748 -859 160 -21 574 -21 734 0
534 70 1008 263 1443 588 162 121 438 392 551 542 318 420 509 854 594 1351
126 736 -35 1514 -442 2134 -129 196 -221 309 -398 486 -481 482 -1068 770
-1750 859 -146 19 -453 27 -594 15z m-581 -1830 c120 -14 193 -34 287 -81 140
-68 250 -188 300 -327 35 -97 56 -242 49 -342 -22 -302 -148 -490 -401 -597
-117 -50 -174 -55 -597 -60 l-398 -5 0 -444 0 -444 -205 0 -205 0 0 1155 0
1155 543 0 c298 0 580 -5 627 -10z m2367 -18 c159 -42 289 -125 354 -225 102
-157 115 -396 32 -567 -34 -70 -140 -177 -215 -215 -32 -17 -58 -32 -58 -35 0
-3 21 -11 46 -18 178 -48 309 -185 358 -379 26 -100 31 -226 12 -322 -49 -263
-225 -420 -551 -494 -84 -19 -129 -21 -722 -24 l-633 -4 0 1156 0 1156 648 -4
c625 -3 650 -4 729 -25z"/>
<path d="M1430 3461 l0 -381 326 0 c264 0 338 3 388 16 114 29 198 96 245 194
23 49 26 67 26 170 0 152 -18 204 -94 281 -93 92 -94 92 -523 97 l-368 3 0
-380z"/>
<path d="M3590 3520 l0 -321 383 3 c371 3 383 4 430 25 76 35 123 78 154 141
25 51 28 67 28 162 0 97 -2 110 -30 165 -21 42 -43 68 -71 87 -80 53 -124 58
-526 58 l-368 0 0 -320z"/>
<path d="M3590 2549 l0 -360 418 3 c406 3 418 4 473 26 80 32 133 81 171 160
31 63 33 72 33 177 0 94 -3 117 -23 160 -44 95 -129 160 -240 184 -34 7 -192
11 -442 11 l-390 0 0 -361z"/>
</g>
</svg>
